<svg xmlns="http://www.w3.org/2000/svg" width="54" height="51" viewBox="0 0 54 51">
    <g fill="none" fill-rule="evenodd">
        <path fill="#788B9C" d="M18.225 45.9L12.15 27.647 6.075 45.9l-1.35-.537 7.425-22.01 7.425 22.01zM47.925 45.9L41.85 27.647 35.775 45.9l-1.35-.537 7.425-22.01 7.425 22.01z"/>
        <path fill="#788B9C" d="M41.31 25.903L27 6.443l-14.31 19.46-1.08-.806L27 4.295l15.39 20.802z"/>
        <g transform="translate(21.6)">
            <ellipse cx="5.4" cy="5.368" fill="#8BB7F0" rx="4.725" ry="4.697"/>
            <path fill="#4E7AB5" fill-rule="nonzero" d="M5.4 1.342c2.295 0 4.05 1.745 4.05 4.026 0 2.282-1.755 4.027-4.05 4.027S1.35 7.65 1.35 5.368c0-2.281 1.755-4.026 4.05-4.026zM5.4 0C2.43 0 0 2.416 0 5.368c0 2.953 2.43 5.369 5.4 5.369s5.4-2.416 5.4-5.369C10.8 2.416 8.37 0 5.4 0z"/>
        </g>
        <g transform="translate(43.2 40.263)">
            <ellipse cx="5.4" cy="5.368" fill="#8BB7F0" rx="4.725" ry="4.697"/>
            <path fill="#4E7AB5" fill-rule="nonzero" d="M5.4 1.342c2.295 0 4.05 1.745 4.05 4.026 0 2.282-1.755 4.027-4.05 4.027S1.35 7.65 1.35 5.368c0-2.281 1.755-4.026 4.05-4.026zM5.4 0C2.43 0 0 2.416 0 5.368c0 2.953 2.43 5.369 5.4 5.369s5.4-2.416 5.4-5.369C10.8 2.416 8.37 0 5.4 0z"/>
        </g>
        <g transform="translate(29.7 40.263)">
            <ellipse cx="5.4" cy="5.368" fill="#8BB7F0" rx="4.725" ry="4.697"/>
            <path fill="#4E7AB5" fill-rule="nonzero" d="M5.4 1.342c2.295 0 4.05 1.745 4.05 4.026 0 2.282-1.755 4.027-4.05 4.027S1.35 7.65 1.35 5.368c0-2.281 1.755-4.026 4.05-4.026zM5.4 0C2.43 0 0 2.416 0 5.368c0 2.953 2.43 5.369 5.4 5.369s5.4-2.416 5.4-5.369C10.8 2.416 8.37 0 5.4 0z"/>
        </g>
        <g transform="translate(36.45 20.132)">
            <ellipse cx="5.4" cy="5.368" fill="#8BB7F0" rx="4.725" ry="4.697"/>
            <path fill="#4E7AB5" fill-rule="nonzero" d="M5.4 1.342c2.295 0 4.05 1.745 4.05 4.026 0 2.282-1.755 4.027-4.05 4.027S1.35 7.65 1.35 5.368c0-2.281 1.755-4.026 4.05-4.026zM5.4 0C2.43 0 0 2.416 0 5.368c0 2.953 2.43 5.369 5.4 5.369s5.4-2.416 5.4-5.369C10.8 2.416 8.37 0 5.4 0z"/>
        </g>
        <g transform="translate(6.75 20.132)">
            <ellipse cx="5.4" cy="5.368" fill="#8BB7F0" rx="4.725" ry="4.697"/>
            <path fill="#4E7AB5" fill-rule="nonzero" d="M5.4 1.342c2.295 0 4.05 1.745 4.05 4.026 0 2.282-1.755 4.027-4.05 4.027S1.35 7.65 1.35 5.368c0-2.281 1.755-4.026 4.05-4.026zM5.4 0C2.43 0 0 2.416 0 5.368c0 2.953 2.43 5.369 5.4 5.369s5.4-2.416 5.4-5.369C10.8 2.416 8.37 0 5.4 0z"/>
        </g>
        <g transform="translate(13.5 40.263)">
            <ellipse cx="5.4" cy="5.368" fill="#8BB7F0" rx="4.725" ry="4.697"/>
            <path fill="#4E7AB5" fill-rule="nonzero" d="M5.4 1.342c2.295 0 4.05 1.745 4.05 4.026 0 2.282-1.755 4.027-4.05 4.027S1.35 7.65 1.35 5.368c0-2.281 1.755-4.026 4.05-4.026zM5.4 0C2.43 0 0 2.416 0 5.368c0 2.953 2.43 5.369 5.4 5.369s5.4-2.416 5.4-5.369C10.8 2.416 8.37 0 5.4 0z"/>
        </g>
        <g transform="translate(0 40.263)">
            <ellipse cx="5.4" cy="5.368" fill="#8BB7F0" rx="4.725" ry="4.697"/>
            <path fill="#4E7AB5" fill-rule="nonzero" d="M5.4 1.342c2.295 0 4.05 1.745 4.05 4.026 0 2.282-1.755 4.027-4.05 4.027S1.35 7.65 1.35 5.368c0-2.281 1.755-4.026 4.05-4.026zM5.4 0C2.43 0 0 2.416 0 5.368c0 2.953 2.43 5.369 5.4 5.369s5.4-2.416 5.4-5.369C10.8 2.416 8.37 0 5.4 0z"/>
        </g>
    </g>
</svg>
