<svg xmlns="http://www.w3.org/2000/svg" width="15" height="15" viewBox="0 0 15 15">
    <path fill="#514A9D" fill-rule="nonzero" d="M10.73 3.205c.331 0 .6-.272.6-.606V.606a.603.603 0 0 0-.6-.606c-.332 0-.601.271-.601.606v1.993c0 .334.269.606.6.606zm-6.46 0c.332 0 .601-.272.601-.606V.606a.603.603 0 0 0-.6-.606c-.332 0-.601.271-.601.606v1.993c0 .334.269.606.6.606zM14.2 1.48h-2.15v1.118c0 .735-.592 1.333-1.32 1.333a1.329 1.329 0 0 1-1.322-1.333V1.48H5.592v1.118c0 .735-.593 1.333-1.321 1.333a1.329 1.329 0 0 1-1.322-1.333V1.48H.801c-.443 0-.801.362-.801.808V5.6h15V2.29a.804.804 0 0 0-.8-.808zM0 14.192c0 .446.358.808.8.808h13.4c.442 0 .8-.362.8-.808V6.248H0v7.944zm11.085-6.026h2.049v2.067h-2.049V8.166zm0 2.95h2.049v2.066h-2.049v-2.067zm-3.073-2.95h2.049v2.067H8.012V8.166zm0 2.95h2.049v2.066H8.012v-2.067zM4.94 8.165h2.049v2.067H4.939V8.166zm0 2.95h2.049v2.066H4.939v-2.067zm-3.073-2.95h2.049v2.067H1.866V8.166zm0 2.95h2.049v2.066H1.866v-2.067z"/>
</svg>
