<svg xmlns="http://www.w3.org/2000/svg" width="54" height="64" viewBox="0 0 54 64">
    <g fill="none" fill-rule="evenodd">
        <path fill="#66798F" d="M32.594 29.715H21.406s-11.188 3.462-11.188 24.144H43.78c0-20.61-11.187-24.144-11.187-24.144z"/>
        <path fill="#B0C1D4" d="M.859 63.158c.574-15.667 17.106-18.51 17.277-18.537l17.863.01c.559.105 16.584 2.948 17.142 18.527H.86z"/>
        <path fill="#66798F" fill-rule="nonzero" d="M35.854 45.474c1.595.291 15.343 3.201 16.396 16.842H1.752C2.805 48.664 16.58 45.76 18.146 45.474h17.708zM36 43.789H18.001S0 46.688 0 64h54c0-17.251-18-20.21-18-20.21z"/>
        <path fill="#E8D47B" d="M27 49.534c-5.537 0-7.933-3.228-8.438-4.02v-8.19h16.875v8.19c-.5.787-2.895 4.02-8.437 4.02z"/>
        <path fill="#BA9B48" fill-rule="nonzero" d="M34.594 38.166v7.094c-.635.894-2.852 3.432-7.594 3.432-4.73 0-6.956-2.538-7.594-3.434v-7.092h15.188zm1.687-1.684H17.72v9.263s2.475 4.631 9.281 4.631c6.806 0 9.281-4.631 9.281-4.631v-9.263z"/>
        <path fill="#D8E0EB" d="M32.063 62.316H21.937l1.688-8.421h6.75z"/>
        <path fill="#FFF" d="M32.063 57.25H21.937l1.688-9.087h6.75z"/>
        <g>
            <path fill="#FFEEA3" d="M27 44.632c-1.048 0-2.06-.4-2.848-1.125l-.142-.132-.186-.055c-4.662-1.407-7.793-5.616-7.793-10.478V19.14a4.786 4.786 0 0 1 4.786-4.776h12.366c2.638 0 4.786 2.142 4.786 4.776v13.703c0 4.862-3.13 9.071-7.793 10.478l-.186.055-.142.132A4.202 4.202 0 0 1 27 44.632z"/>
            <path fill="#BA9B48" fill-rule="nonzero" d="M33.183 15.205a3.943 3.943 0 0 1 3.942 3.934v13.703c0 4.418-2.958 8.394-7.194 9.67l-.371.112-.285.263a3.351 3.351 0 0 1-2.275.902c-.835 0-1.644-.32-2.276-.902l-.286-.263-.37-.111c-4.235-1.277-7.193-5.253-7.193-9.67V19.138a3.943 3.943 0 0 1 3.942-3.934h12.366zm0-1.684H20.817a5.625 5.625 0 0 0-5.63 5.618v13.703c0 5.324 3.538 9.82 8.392 11.283A5.036 5.036 0 0 0 27 45.474a5.036 5.036 0 0 0 3.42-1.35c4.856-1.463 8.393-5.958 8.393-11.282V19.14a5.624 5.624 0 0 0-5.63-5.618z"/>
        </g>
        <g>
            <path fill="#FFF" d="M42.188 53.053c-4.187 0-7.594-3.4-7.594-7.58a7.53 7.53 0 0 1 2.18-5.305l.58-.59-.58-.589a7.53 7.53 0 0 1-2.18-5.305 7.53 7.53 0 0 1 2.18-5.305l.58-.59-.58-.589a7.53 7.53 0 0 1-2.18-5.305c0-.618.101-1.267.315-2.04l.206-.738-.715-.274a7.55 7.55 0 0 1-3.686-3.025l-.37-.584-.646.247A7.547 7.547 0 0 1 27 16c-.891 0-1.8-.175-2.702-.519l-.646-.247-.37.584a7.524 7.524 0 0 1-3.685 3.025l-.716.274.206.738c.218.773.32 1.422.32 2.04a7.53 7.53 0 0 1-2.181 5.305l-.58.59.58.589a7.53 7.53 0 0 1 2.18 5.305 7.53 7.53 0 0 1-2.18 5.305l-.58.59.58.59a7.53 7.53 0 0 1 2.18 5.305c0 4.178-3.407 7.579-7.593 7.579-4.187 0-7.594-3.4-7.594-7.58a7.53 7.53 0 0 1 2.18-5.305l.58-.59-.58-.589a7.53 7.53 0 0 1-2.18-5.305 7.53 7.53 0 0 1 2.18-5.305l.58-.59-.58-.589a7.53 7.53 0 0 1-2.18-5.305c0-3.146 1.912-5.915 4.87-7.054l.715-.274-.207-.738c-.214-.773-.316-1.421-.316-2.04 0-4.178 3.407-7.578 7.594-7.578.891 0 1.8.175 2.702.518l.646.248.37-.585C21.997 2.17 24.393.842 27 .842s5.003 1.327 6.41 3.55l.369.585.646-.248a7.563 7.563 0 0 1 2.7-.518c4.187 0 7.594 3.4 7.594 7.578 0 .619-.102 1.267-.318 2.04l-.205.738.715.274c2.958 1.139 4.87 3.908 4.87 7.054a7.53 7.53 0 0 1-2.18 5.305l-.58.59.58.589a7.53 7.53 0 0 1 2.18 5.305 7.53 7.53 0 0 1-2.18 5.305l-.58.59.58.59a7.53 7.53 0 0 1 2.18 5.305c0 4.178-3.407 7.579-7.593 7.579z"/>
            <path fill="#788B9C" fill-rule="nonzero" d="M27 1.684c2.315 0 4.443 1.18 5.695 3.158l.738 1.167 1.29-.493a6.761 6.761 0 0 1 2.402-.463c3.723 0 6.75 3.021 6.75 6.736 0 .543-.091 1.119-.285 1.811l-.415 1.475 1.432.551c2.631 1.014 4.33 3.475 4.33 6.269 0 1.77-.688 3.444-1.938 4.714l-1.161 1.18 1.16 1.181a6.684 6.684 0 0 1 1.94 4.714c0 1.77-.689 3.444-1.94 4.714l-1.16 1.18 1.16 1.182a6.684 6.684 0 0 1 1.94 4.714c0 3.715-3.028 6.737-6.75 6.737-3.723 0-6.75-3.022-6.75-6.737 0-1.77.688-3.445 1.938-4.714l1.161-1.181-1.16-1.18a6.684 6.684 0 0 1-1.94-4.715c0-1.77.689-3.444 1.94-4.714l1.16-1.18-1.16-1.181a6.684 6.684 0 0 1-1.94-4.714c0-.543.092-1.119.286-1.81l.415-1.476-1.433-.55a6.688 6.688 0 0 1-3.275-2.69l-.738-1.168-1.29.494a6.761 6.761 0 0 1-2.402.463 6.745 6.745 0 0 1-2.4-.463l-1.29-.494-.738 1.167a6.706 6.706 0 0 1-3.275 2.69l-1.433.55.415 1.476c.192.692.283 1.268.283 1.81 0 1.77-.688 3.445-1.938 4.715l-1.161 1.18 1.16 1.181a6.684 6.684 0 0 1 1.94 4.714c0 1.77-.689 3.444-1.94 4.714l-1.16 1.18 1.16 1.182a6.684 6.684 0 0 1 1.94 4.714c0 3.715-3.028 6.737-6.75 6.737-3.723 0-6.75-3.022-6.75-6.737 0-1.77.688-3.445 1.938-4.714l1.161-1.181-1.16-1.18a6.684 6.684 0 0 1-1.94-4.715c0-1.77.689-3.444 1.94-4.714l1.16-1.18-1.16-1.181a6.684 6.684 0 0 1-1.94-4.714c0-2.794 1.7-5.255 4.33-6.269l1.433-.55-.415-1.476c-.194-.692-.285-1.268-.285-1.81 0-3.716 3.027-6.737 6.75-6.737.786 0 1.595.156 2.4.463l1.29.493.738-1.167C22.557 2.865 24.685 1.684 27 1.684zM27 0c-3.005 0-5.628 1.581-7.121 3.943a8.4 8.4 0 0 0-3.004-.575c-4.66 0-8.438 3.771-8.438 8.421 0 .79.146 1.542.348 2.267-3.159 1.216-5.41 4.256-5.41 7.839 0 2.297.926 4.375 2.422 5.894a8.377 8.377 0 0 0-2.422 5.895c0 2.297.926 4.376 2.422 5.895a8.377 8.377 0 0 0-2.422 5.895c0 4.65 3.778 8.42 8.438 8.42 4.659 0 8.437-3.77 8.437-8.42a8.377 8.377 0 0 0-2.422-5.895 8.377 8.377 0 0 0 2.422-5.895 8.377 8.377 0 0 0-2.422-5.895 8.377 8.377 0 0 0 2.422-5.894c0-.79-.145-1.541-.348-2.267a8.429 8.429 0 0 0 4.096-3.362 8.35 8.35 0 0 0 3.002.576 8.4 8.4 0 0 0 3.004-.574 8.43 8.43 0 0 0 4.095 3.361c-.204.725-.349 1.476-.349 2.266 0 2.297.926 4.375 2.422 5.894a8.377 8.377 0 0 0-2.422 5.895c0 2.297.926 4.376 2.422 5.895a8.377 8.377 0 0 0-2.422 5.895c0 4.65 3.778 8.42 8.438 8.42 4.659 0 8.437-3.77 8.437-8.42a8.377 8.377 0 0 0-2.422-5.895 8.377 8.377 0 0 0 2.422-5.895 8.377 8.377 0 0 0-2.422-5.895 8.377 8.377 0 0 0 2.422-5.894c0-3.583-2.251-6.623-5.41-7.839.202-.725.347-1.477.347-2.267 0-4.65-3.778-8.42-8.437-8.42a8.4 8.4 0 0 0-3.004.574C32.628 1.58 30.005 0 27 0z"/>
        </g>
    </g>
</svg>
