<svg xmlns="http://www.w3.org/2000/svg" width="51" height="53" viewBox="0 0 51 53">
    <g fill="none" fill-rule="evenodd">
        <path d="M-3 53V-1h54v54z"/>
        <g transform="translate(.224 .612)">
            <path fill="#66798F" fill-rule="nonzero" d="M24.18 29.84h-1.206a.673.673 0 0 0-.125.285.665.665 0 0 0-.547-.285h-.2c-.37 0-.671.303-.671.675 0 .373.3.675.67.675h.201a.672.672 0 0 0 .62-.415.667.667 0 0 0 .736.333.658.658 0 0 0 .32.082h.201v-1.35zm-3.755 0h-.2c-.37 0-.671.303-.671.675 0 .373.3.675.67.675h.201c.37 0 .67-.302.67-.675 0-.372-.3-.675-.67-.675zm-1.877 0h-.2c-.37 0-.67.303-.67.675 0 .373.3.675.67.675h.2c.37 0 .67-.302.67-.675 0-.372-.3-.675-.67-.675zm-1.876 0h-.201c-.37 0-.67.303-.67.675 0 .373.3.675.67.675h.2c.37 0 .67-.302.67-.675 0-.372-.3-.675-.67-.675zm-1.877 0h-.201c-.37 0-.67.303-.67.675 0 .373.3.675.67.675h.2c.37 0 .671-.302.671-.675 0-.372-.3-.675-.67-.675zm-1.877 0h-.201c-.37 0-.67.303-.67.675 0 .373.3.675.67.675h.2c.37 0 .671-.302.671-.675 0-.372-.3-.675-.67-.675zm-1.877 0h-.201c-.37 0-.67.303-.67.675 0 .373.3.675.67.675h.201c.37 0 .67-.302.67-.675 0-.372-.3-.675-.67-.675zm-1.877 0h-.201a.668.668 0 0 0-.467.19.675.675 0 0 0-.404.62v.203a.67.67 0 1 0 1.267.31.675.675 0 0 0-.195-1.323zm-.402 2.025c-.37 0-.67.303-.67.675v.203c0 .372.3.674.67.674.37 0 .67-.302.67-.674v-.203c0-.372-.3-.675-.67-.675zm0 1.89c-.37 0-.67.302-.67.675v.202c0 .373.3.675.67.675.37 0 .67-.302.67-.675v-.202c0-.373-.3-.675-.67-.675zm0 1.89c-.37 0-.67.302-.67.675v.202c0 .373.3.675.67.675.37 0 .67-.302.67-.675v-.202c0-.373-.3-.675-.67-.675zm0 1.89c-.37 0-.67.302-.67.674v.203c0 .372.3.675.67.675.37 0 .67-.303.67-.675v-.203c0-.372-.3-.675-.67-.675zm0 1.89c-.37 0-.67.302-.67.674v.203c0 .372.3.674.67.674.37 0 .67-.302.67-.674v-.203c0-.372-.3-.675-.67-.675zm0 1.889c-.37 0-.67.302-.67.675v.202c0 .373.3.675.67.675.37 0 .67-.302.67-.675v-.202c0-.373-.3-.675-.67-.675zm.008 1.845l-.044.001a.663.663 0 0 0-.618.7l.001.019.005.074v.023l.011.124c.036.341.32.597.657.597l.062-.003a.684.684 0 0 0 .615-.734l-.013-.17a.681.681 0 0 0-.676-.63zm.312 1.702a.665.665 0 0 0-.64.853l.006.018c.02.065.04.128.062.193l.005.017a.66.66 0 0 0 .835.41.685.685 0 0 0 .43-.858l-.051-.16a.68.68 0 0 0-.647-.473zm.697 1.58a.667.667 0 0 0-.572 1.014c.034.059.068.117.105.173.002.006.006.011.009.015a.658.658 0 0 0 .906.203.688.688 0 0 0 .22-.934l-.087-.145a.677.677 0 0 0-.58-.325zm1.045 1.376c-.17 0-.34.064-.47.19a.667.667 0 0 0-.025.936l.014.014.038.04.004.004.002.001.002.003.002.003.001.001.003.003.001.001.004.004.095.096a.654.654 0 0 0 .928-.013.688.688 0 0 0 0-.96l-.118-.12a.666.666 0 0 0-.481-.203zm1.331 1.098a.677.677 0 0 0-.572.313.667.667 0 0 0 .19.915l.016.01.001.002.004.003.002.001.004.003.001.001.004.003.044.028h.002l.004.003.002.001.003.002.003.001a.004.004 0 0 0 .002.001l.004.003.092.057c.005.002.01.007.014.01a.656.656 0 0 0 .9-.228.687.687 0 0 0-.219-.935l-.142-.089a.665.665 0 0 0-.359-.105zm1.544.758a.682.682 0 0 0-.642.458c-.12.345.057.72.396.846l.017.007.035.012.005.001.006.002h.001l.005.001h.002l.005.001h.002l.004.002.005.001.003.002h.002c.002 0 .003.002.003.002l.004.002h.003l.002.002c.002 0 .002.002.002.002l.004.001.004.001.002.002.004.001.003.001.004.002.003.001.002.001c.002 0 .002 0 .003.002l.003.001.004.001.003.002.005.001h.001l.06.02.017.006a.656.656 0 0 0 .824-.432.685.685 0 0 0-.429-.857l-.158-.054a.583.583 0 0 0-.219-.04zm1.675.376a.681.681 0 0 0-.674.612.664.664 0 0 0 .579.73c.079.009.158.017.237.022a.661.661 0 0 0 .701-.613.684.684 0 0 0-.615-.734l-.168-.015a.863.863 0 0 0-.06-.002zM17.26 50a.77.77 0 0 0-.095.007l-.166.023a.684.684 0 0 0-.578.764.662.662 0 0 0 .73.578l.018-.003c.066-.008.133-.018.198-.028l.02-.003c.356-.06.598-.397.542-.759a.68.68 0 0 0-.669-.579zm1.654-.459a.662.662 0 0 0-.246.048l-.156.062a.687.687 0 0 0-.386.878.66.66 0 0 0 .845.39c.075-.028.149-.058.222-.087a.666.666 0 0 0 .353-.865.684.684 0 0 0-.632-.426zm1.506-.834c-.134 0-.27.04-.387.123l-.139.097a.69.69 0 0 0-.172.945.66.66 0 0 0 .91.182l.015-.01.025-.018h.001l.004-.003.003-.002.001-.002.006-.004.098-.069.001-.001.001-.001.024-.018.015-.01a.672.672 0 1 0-.406-1.208zm1.275-1.162a.68.68 0 0 0-.507.227l-.111.125a.69.69 0 0 0 .047.96.66.66 0 0 0 .929-.034l.028-.03c.001-.002.001-.004.003-.004h.001l.001-.002.003-.003.001-.001.004-.004.004-.004.058-.065.055-.064a.668.668 0 0 0-.071-.932.665.665 0 0 0-.445-.169zm.976-1.427a.678.678 0 0 0-.598.358l-.08.148a.686.686 0 0 0 .265.922.658.658 0 0 0 .905-.264l.015-.027.002-.006v-.001l.003-.004.001-.001c0-.002.002-.003.002-.003l.001-.003.001-.001.003-.004.001-.002c.002 0 .002-.002.003-.004l.046-.085.001-.001.001-.003.002-.004.014-.027.008-.016a.666.666 0 0 0-.282-.89.633.633 0 0 0-.314-.082zm.617-1.614c-.3 0-.576.202-.657.506l-.043.163a.686.686 0 0 0 .653.862.662.662 0 0 0 .632-.476c.022-.077.043-.155.062-.232a.665.665 0 0 0-.647-.823zm.227-1.714a.683.683 0 0 0-.678.664l-.005.168c-.01.373.28.687.65.702h.028c.351 0 .641-.275.66-.629l.001-.017.003-.076v-.005-.007-.007-.004-.002-.005-.006-.007-.007l.001-.075v-.018a.663.663 0 0 0-.651-.668l-.009-.001zm-.006-1.88c-.37 0-.67.303-.67.676v.202c0 .373.3.675.67.675.37 0 .67-.302.67-.675v-.202c0-.373-.3-.675-.67-.675zm0-1.89c-.37 0-.67.303-.67.676v.202c0 .373.3.675.67.675.37 0 .67-.302.67-.675v-.202c0-.373-.3-.675-.67-.675zm0-1.889c-.37 0-.67.303-.67.675v.203c0 .372.3.674.67.674.37 0 .67-.302.67-.674v-.203c0-.372-.3-.675-.67-.675zm0-1.89c-.37 0-.67.303-.67.675v.203c0 .372.3.675.67.675.37 0 .67-.303.67-.675v-.203c0-.372-.3-.675-.67-.675zm0-1.89c-.37 0-.67.303-.67.676v.202c0 .373.3.675.67.675.37 0 .67-.302.67-.675v-.202c0-.373-.3-.675-.67-.675zm0-1.889c-.37 0-.67.302-.67.675v.202c0 .373.3.675.67.675.37 0 .67-.302.67-.675v-.202c0-.373-.3-.675-.67-.675z"/>
            <path fill="#B0C1D4" d="M18.817 42.664c-1.848 0-3.352-1.515-3.352-3.375V4.194c0-1.86 1.504-3.374 3.352-3.374h25.471c1.848 0 3.352 1.514 3.352 3.374V39.29c0 1.86-1.504 3.375-3.352 3.375H18.817z"/>
            <path fill="#66798F" fill-rule="nonzero" d="M44.288 1.494a2.693 2.693 0 0 1 2.682 2.7V39.29c0 1.489-1.203 2.7-2.682 2.7H18.817a2.693 2.693 0 0 1-2.682-2.7V4.194c0-1.489 1.203-2.7 2.682-2.7h25.471zm0-1.35H18.817c-2.222 0-4.022 1.813-4.022 4.05V39.29c0 2.237 1.8 4.05 4.022 4.05h25.471c2.222 0 4.022-1.813 4.022-4.05V4.194c0-2.237-1.8-4.05-4.022-4.05z"/>
            <ellipse cx="38.256" cy="19.717" fill="#FFF" rx="2.011" ry="2.025"/>
            <ellipse cx="31.553" cy="19.717" fill="#FFF" rx="2.011" ry="2.025"/>
            <ellipse cx="24.849" cy="19.717" fill="#FFF" rx="2.011" ry="2.025"/>
            <ellipse cx="38.256" cy="26.466" fill="#FFF" rx="2.011" ry="2.025"/>
            <ellipse cx="31.553" cy="26.466" fill="#FFF" rx="2.011" ry="2.025"/>
            <ellipse cx="24.849" cy="26.466" fill="#FFF" rx="2.011" ry="2.025"/>
            <ellipse cx="38.256" cy="33.215" fill="#FFF" rx="2.011" ry="2.025"/>
            <ellipse cx="31.553" cy="33.215" fill="#FFF" rx="2.011" ry="2.025"/>
            <ellipse cx="24.849" cy="33.215" fill="#FFF" rx="2.011" ry="2.025"/>
            <path fill="#B0C1D4" d="M4.07 42.664c-1.848 0-3.352-1.515-3.352-3.375v-5.862c0-1.262.488-2.447 1.374-3.34L3.4 28.77V14.713l-1.307-1.316a4.71 4.71 0 0 1-1.374-3.34V4.193C.718 2.334 2.222.82 4.07.82h8.043c1.848 0 3.352 1.514 3.352 3.374v5.862a4.712 4.712 0 0 1-1.374 3.341l-1.307 1.316V28.77l1.307 1.316a4.71 4.71 0 0 1 1.374 3.34v5.863c0 1.86-1.504 3.375-3.352 3.375H4.07z"/>
            <path fill="#66798F" fill-rule="nonzero" d="M12.113 1.494a2.693 2.693 0 0 1 2.682 2.7v5.862a4.034 4.034 0 0 1-1.179 2.863l-1.11 1.118-.393.397V29.049l.393.396 1.11 1.118a4.039 4.039 0 0 1 1.179 2.864v5.862c0 1.489-1.203 2.7-2.682 2.7H4.07a2.693 2.693 0 0 1-2.681-2.7v-5.862c0-1.081.418-2.099 1.178-2.863l1.11-1.118.393-.397V14.433l-.393-.395-1.11-1.117a4.039 4.039 0 0 1-1.178-2.865V4.194c0-1.489 1.202-2.7 2.68-2.7h8.044zm0-1.35H4.07C1.848.145.048 1.958.048 4.195v5.862c0 1.432.564 2.805 1.571 3.818l1.11 1.119V28.49l-1.11 1.117a5.417 5.417 0 0 0-1.571 3.819v5.862c0 2.237 1.8 4.05 4.022 4.05h8.043c2.222 0 4.022-1.813 4.022-4.05v-5.862a5.412 5.412 0 0 0-1.57-3.817l-1.11-1.12V14.994l1.11-1.118a5.417 5.417 0 0 0 1.57-3.819V4.194c0-2.237-1.8-4.05-4.022-4.05z"/>
            <g>
                <path fill="#DBF2FF" d="M20.827 6.219h21.45v6.749h-21.45z"/>
                <path fill="#7496C4" fill-rule="nonzero" d="M41.607 6.894v5.399h-20.11v-5.4h20.11zm1.34-1.35h-22.79v8.099h22.79v-8.1z"/>
            </g>
        </g>
        <g transform="translate(26.82 28.82)">
            <circle cx="12.113" cy="12.113" r="11.395" fill="#BAE0BD"/>
            <path fill="#5E9C76" fill-rule="nonzero" d="M12.113 1.389c5.9 0 10.725 4.826 10.725 10.724 0 5.9-4.826 10.725-10.725 10.725-5.898 0-10.724-4.826-10.724-10.725 0-5.898 4.826-10.724 10.724-10.724zm0-1.341A12.015 12.015 0 0 0 .048 12.113 12.015 12.015 0 0 0 12.113 24.18 12.015 12.015 0 0 0 24.18 12.113 12.015 12.015 0 0 0 12.113.048z"/>
        </g>
        <path fill="#FFF" d="M37.594 34.23h2.68v13.407h-2.68z"/>
        <path fill="#FFF" d="M32.23 39.594h13.407v2.68H32.23z"/>
    </g>
</svg>
