<svg xmlns="http://www.w3.org/2000/svg" width="54" height="51" viewBox="0 0 54 51">
    <g fill="none" fill-rule="evenodd">
        <path fill="#839CB2" d="M22.026 33.292h9.947v12.75h-9.947z"/>
        <path fill="#66798F" fill-rule="nonzero" d="M31.263 34v11.333h-8.526V34h8.526zm1.421-1.417H21.316V46.75h11.368V32.583z"/>
        <path fill="#F2FAFF" d="M.711 6.375H53.29v34H.711z"/>
        <path fill="#788B9C" fill-rule="nonzero" d="M52.579 7.083v32.584H1.42V7.083H52.58zM54 5.667H0v35.416h54V5.667z"/>
        <path fill="#B0C1D4" d="M12.079 46.042h29.842v4.25H12.079z"/>
        <path fill="#66798F" fill-rule="nonzero" d="M41.21 46.75v2.833H12.79V46.75h28.42zm1.422-1.417H11.368V51h31.264v-5.667z"/>
        <path fill="#788B9C" d="M7.105 24.083h39.789v5.667H7.105z"/>
        <path fill="#BAE0BD" d="M12.08.708H41.92v26.917H12.08z"/>
        <path fill="#5E9C76" fill-rule="nonzero" d="M41.21 1.417v25.5H12.79v-25.5h28.42zM42.633 0H11.368v28.333h31.264V0z"/>
        <path fill="#FFF" d="M16.342 27.625v-.708c0-5.86 4.78-10.625 10.658-10.625 5.877 0 10.658 4.765 10.658 10.625v.708H16.342z"/>
        <path fill="#5E9C76" fill-rule="nonzero" d="M27 17c5.485 0 9.947 4.448 9.947 9.917H17.053C17.053 21.448 21.515 17 27 17zm0-1.417c-6.278 0-11.368 5.075-11.368 11.334v1.416h22.736v-1.416c0-6.26-5.09-11.334-11.368-11.334zm11.368 12.75v.143-.143z"/>
        <g transform="translate(22.737 4.25)">
            <ellipse cx="4.263" cy="4.25" fill="#FFF" rx="3.553" ry="3.542"/>
            <path fill="#5E9C76" fill-rule="nonzero" d="M4.263 1.417A2.84 2.84 0 0 1 7.105 4.25a2.84 2.84 0 0 1-2.842 2.833A2.84 2.84 0 0 1 1.421 4.25a2.84 2.84 0 0 1 2.842-2.833zm0-1.417A4.256 4.256 0 0 0 0 4.25 4.256 4.256 0 0 0 4.263 8.5a4.256 4.256 0 0 0 4.263-4.25A4.256 4.256 0 0 0 4.263 0z"/>
        </g>
        <path fill="#F2FAFF" d="M5.684 28.333h42.632v4.25H5.684z"/>
        <path fill="#788B9C" d="M7.105 26.917h39.789v1.417H7.105z"/>
    </g>
</svg>
