<svg xmlns="http://www.w3.org/2000/svg" width="54" height="51" viewBox="0 0 54 51">
    <g fill="none" fill-rule="evenodd">
        <path fill="#DBF2FF" d="M3.375 13.42h47.25V50.33H3.375z"/>
        <path fill="#7496C4" fill-rule="nonzero" d="M49.95 14.092v35.566H4.05V14.092h45.9zm1.35-1.342H2.7V51h48.6V12.75z"/>
        <path fill="#B5DDF5" d="M4.05 44.289h45.9v5.368H4.05z"/>
        <path fill="#8BB7F0" d="M12.825 27.513h28.35V50.33h-28.35z"/>
        <path fill="#4E7AB5" fill-rule="nonzero" d="M40.5 28.184v21.474h-27V28.184h27zm1.35-1.342h-29.7V51h29.7V26.842z"/>
        <path fill="#4E7AB5" d="M25.65 26.842h2.7V51h-2.7z"/>
        <path fill="#F5CE85" d="M48.6 23.487c-2.605 0-4.725-2.107-4.725-4.698a.673.673 0 0 0-.675-.67c-.373 0-.675.3-.675.67 0 2.59-2.12 4.698-4.725 4.698-2.605 0-4.725-2.107-4.725-4.698a.673.673 0 0 0-.675-.67c-.373 0-.675.3-.675.67 0 2.59-2.12 4.698-4.725 4.698-2.605 0-4.725-2.107-4.725-4.698a.673.673 0 0 0-.675-.67c-.373 0-.675.3-.675.67 0 2.59-2.12 4.698-4.725 4.698-2.605 0-4.725-2.107-4.725-4.698a.673.673 0 0 0-.675-.67c-.373 0-.675.3-.675.67 0 2.59-2.12 4.698-4.725 4.698-.154 0-.31-.007-.466-.022C2.546 23.237.675 21.083.675 18.56V13.59l3.969-7.33a.671.671 0 0 0 .081-.319V2.684c0-1.11.909-2.013 2.025-2.013h40.5c1.116 0 2.025.903 2.025 2.013v3.257c0 .112.028.22.081.319l3.969 7.33v4.969c0 2.524-1.871 4.678-4.26 4.906a4.958 4.958 0 0 1-.465.022z"/>
        <path fill="#967A44" fill-rule="nonzero" d="M47.25 1.342c.744 0 1.35.603 1.35 1.342v3.257c0 .222.055.44.16.637l3.89 7.181v4.8c0 2.182-1.602 4.043-3.648 4.238a4.53 4.53 0 0 1-.402.019c-2.233 0-4.05-1.807-4.05-4.027 0-.74-.605-1.342-1.35-1.342-.745 0-1.35.602-1.35 1.342 0 2.22-1.817 4.027-4.05 4.027-2.233 0-4.05-1.807-4.05-4.027 0-.74-.605-1.342-1.35-1.342-.745 0-1.35.602-1.35 1.342 0 2.22-1.817 4.027-4.05 4.027-2.233 0-4.05-1.807-4.05-4.027 0-.74-.605-1.342-1.35-1.342-.745 0-1.35.602-1.35 1.342 0 2.22-1.817 4.027-4.05 4.027-2.233 0-4.05-1.807-4.05-4.027 0-.74-.605-1.342-1.35-1.342-.745 0-1.35.602-1.35 1.342 0 2.22-1.817 4.027-4.05 4.027a4.53 4.53 0 0 1-.402-.019c-2.046-.195-3.648-2.056-3.648-4.238v-4.8l3.89-7.181c.105-.195.16-.414.16-.637V2.684c0-.74.606-1.342 1.35-1.342h40.5zm0-1.342H6.75a2.691 2.691 0 0 0-2.7 2.684v3.257L0 13.421v5.138c0 2.803 2.061 5.308 4.87 5.573.178.018.356.026.53.026 2.982 0 5.4-2.404 5.4-5.369 0 2.965 2.418 5.369 5.4 5.369s5.4-2.404 5.4-5.369c0 2.965 2.418 5.369 5.4 5.369s5.4-2.404 5.4-5.369c0 2.965 2.418 5.369 5.4 5.369s5.4-2.404 5.4-5.369c0 2.965 2.418 5.369 5.4 5.369.175 0 .352-.008.53-.026 2.809-.265 4.87-2.77 4.87-5.573V13.42l-4.05-7.48V2.684A2.691 2.691 0 0 0 47.25 0z"/>
        <path fill="#967A44" d="M4.05 5.368h45.9V6.71H4.05z"/>
        <path fill="#FFEEA3" d="M1.534 13.421h50.932l-3.632-6.71H5.166z"/>
        <path fill="#967A44" d="M0 13.421h54v1.342H0z"/>
    </g>
</svg>
