<svg xmlns="http://www.w3.org/2000/svg" width="54" height="46" viewBox="0 0 54 46">
    <g fill="none" fill-rule="evenodd">
        <path fill="#839CB2" d="M22.688 27.75h9.625v13.5h-9.625z"/>
        <path fill="#66798F" fill-rule="nonzero" d="M31.625 28.5v12h-8.25v-12h8.25zM33 27H22v15h11V27z"/>
        <path fill="#F2FAFF" d="M.711.72H53.29v34.56H.711z"/>
        <path fill="#788B9C" fill-rule="nonzero" d="M52.579 1.44v33.12H1.42V1.44H52.58zM54 0H0v36h54V0z"/>
        <path fill="#B0C1D4" d="M12.682 40.75h28.636v4.5H12.682z"/>
        <path fill="#66798F" fill-rule="nonzero" d="M40.636 41.5v3H13.364v-3h27.272zM42 40H12v6h30v-6z"/>
        <path fill="#8BB7F0" d="M14.744 35.333c.375-5.94 5.73-10.666 12.256-10.666s11.882 4.726 12.256 10.666H14.744z"/>
        <path fill="#4E7AB5" fill-rule="nonzero" d="M27 25.333c5.883 0 10.752 4.079 11.466 9.334H15.534c.714-5.255 5.583-9.334 11.466-9.334zM27 24c-7.18 0-13 5.372-13 12h26c0-6.628-5.82-12-13-12z"/>
        <path fill="#FFEEA3" d="M27 21.25c-3.473 0-6.3-3.028-6.3-6.75 0-3.721 2.827-6.75 6.3-6.75s6.3 3.029 6.3 6.75c0 3.722-2.827 6.75-6.3 6.75z"/>
        <path fill="#BA9B48" fill-rule="nonzero" d="M27 8.5c3.088 0 5.6 2.691 5.6 6s-2.512 6-5.6 6c-3.088 0-5.6-2.691-5.6-6s2.512-6 5.6-6zM27 7c-3.865 0-7 3.358-7 7.5 0 4.142 3.135 7.5 7 7.5s7-3.358 7-7.5c0-4.142-3.135-7.5-7-7.5z"/>
        <path fill="#788B9C" d="M14 34h28v2H14z"/>
        <g>
            <path fill="#C2E8FF" d="M20.7 28.8h12.6v6.4H20.7z"/>
            <path fill="#788B9C" fill-rule="nonzero" d="M32.6 29.6v4.8H21.4v-4.8h11.2zM34 28H20v8h14v-8z"/>
        </g>
        <g>
            <path fill="#C2E8FF" d="M32.7 28.8h12.508v6.4H32.7z"/>
            <path fill="#788B9C" fill-rule="nonzero" d="M44.506 29.6v4.8H33.4v-4.8h11.106zm1.4-1.6H32v8h13.906v-8z"/>
        </g>
        <g>
            <path fill="#C2E8FF" d="M8.7 28.8h12.6v6.4H8.7z"/>
            <path fill="#788B9C" fill-rule="nonzero" d="M20.6 29.6v4.8H9.4v-4.8h11.2zM22 28H8v8h14v-8z"/>
        </g>
    </g>
</svg>
